<?xml version="1.0" standalone="no"?>
<!DOCTYPE svg PUBLIC "-//W3C//DTD SVG 20010904//EN"
 "http://www.w3.org/TR/2001/REC-SVG-20010904/DTD/svg10.dtd">
<svg version="1.0" xmlns="http://www.w3.org/2000/svg"
 width="610.000000pt" height="1200.000000pt" viewBox="0 0 610.000000 1200.000000"
 preserveAspectRatio="xMidYMid meet">

<g transform="translate(0.000000,1200.000000) scale(0.100000,-0.100000)"
fill="#000000" stroke="none">
<path d="M3915 7183 c-15 -32 -41 -89 -57 -128 -17 -38 -33 -73 -37 -77 -4 -4
-72 6 -151 22 -94 19 -148 26 -154 20 -10 -10 28 -146 65 -237 17 -41 17 -41
-4 -46 -12 -2 -70 -15 -129 -28 l-108 -24 0 -40 c0 -25 12 -64 33 -105 l32
-65 -83 -1 c-46 -1 -88 -6 -94 -12 -9 -9 1 -110 18 -178 5 -20 3 -20 -82 -11
-102 10 -138 1 -129 -35 3 -13 6 -52 7 -88 l3 -65 -55 3 c-30 2 -71 7 -90 12
-19 6 -38 6 -42 2 -4 -4 -10 -44 -14 -90 -4 -45 -10 -82 -13 -82 -3 0 -47 13
-98 29 -50 16 -95 26 -100 22 -12 -8 -51 -106 -59 -149 -4 -18 -10 -35 -15
-38 -5 -3 -43 11 -85 31 -43 19 -79 33 -82 30 -9 -9 -62 -139 -62 -152 0 -27
-24 -23 -85 17 -60 39 -85 44 -85 17 0 -7 -13 -40 -30 -75 l-29 -63 -52 36
c-28 19 -57 35 -64 35 -20 0 -42 -32 -56 -80 -7 -25 -16 -49 -19 -53 -4 -5
-31 3 -60 18 -72 36 -90 31 -113 -30 -10 -27 -22 -54 -26 -58 -5 -5 -25 -1
-46 7 -65 27 -72 23 -87 -46 l-14 -63 -43 -1 c-23 -1 -45 -4 -47 -7 -3 -3 0
-24 6 -46 12 -47 8 -61 -21 -61 -26 0 -34 -24 -19 -60 10 -24 10 -33 -1 -48
-12 -16 -12 -16 6 0 16 15 17 21 7 43 -17 37 -15 42 16 57 27 14 30 24 21 78
-4 23 0 25 40 30 l45 5 14 63 c7 34 17 62 21 62 5 0 28 -7 51 -15 60 -21 67
-19 75 18 10 45 33 87 48 87 6 0 39 -14 71 -30 32 -17 60 -30 62 -30 1 0 10
26 19 58 27 93 45 102 111 52 21 -16 44 -30 50 -30 10 0 74 119 74 139 0 19
21 12 69 -23 65 -47 88 -53 96 -24 6 23 56 149 62 157 1 2 35 -11 75 -29 40
-18 78 -34 85 -37 7 -3 21 27 37 79 14 46 31 91 39 102 13 18 16 18 93 -8 108
-36 124 -35 124 7 0 17 3 56 6 85 5 41 11 52 25 52 16 0 16 -3 4 -27 -17 -36
-29 -123 -17 -123 13 0 125 74 140 93 12 14 10 17 -15 22 -84 18 -86 22 -8 21
92 -1 84 -14 70 118 l-6 69 93 -5 c51 -3 102 -9 112 -14 17 -7 18 -4 12 27
-16 71 -32 179 -28 184 3 3 45 5 94 5 80 0 88 2 88 19 0 11 -4 22 -9 25 -15 9
-48 89 -55 131 l-7 40 103 23 c57 12 113 22 125 22 12 0 24 4 28 9 3 5 -15 69
-39 143 -53 159 -59 152 114 114 62 -15 122 -26 134 -26 17 0 27 15 50 73 16
39 43 100 59 135 l30 63 29 -28 c41 -39 83 -101 97 -145 7 -21 16 -40 20 -43
5 -2 53 20 107 50 55 30 103 55 107 55 16 0 50 -96 57 -163 4 -38 12 -73 16
-77 5 -4 38 -4 72 2 35 5 66 7 69 4 3 -2 0 -37 -7 -76 -7 -39 -10 -73 -7 -76
2 -2 24 -8 48 -12 l44 -8 0 -65 c0 -41 5 -72 14 -83 12 -14 12 -24 2 -58 -9
-29 -9 -44 -2 -51 11 -11 15 0 12 34 -1 9 3 27 8 42 8 19 6 28 -4 37 -8 7 -12
17 -8 23 3 6 1 7 -5 3 -14 -9 -14 -4 -1 53 14 62 6 77 -42 84 -23 3 -45 9 -49
14 -4 4 -3 35 3 69 14 84 9 94 -45 83 -92 -18 -94 -16 -101 50 -8 73 -43 170
-65 179 -10 3 -56 -15 -115 -47 -55 -29 -100 -51 -101 -49 -1 2 -10 24 -19 49
-18 48 -110 159 -132 159 -7 0 -26 -26 -40 -57z"/>
<path d="M3944 7143 c-36 -86 -55 -136 -51 -139 2 -2 28 0 57 6 29 5 68 10 86
10 19 0 34 3 34 6 0 18 -86 154 -97 154 -7 0 -20 -17 -29 -37z"/>
<path d="M4212 7045 c-68 -32 -91 -55 -57 -55 29 0 139 -50 166 -76 l27 -26
-4 49 c-10 109 -13 126 -26 134 -20 13 -29 11 -106 -26z"/>
<path d="M3550 6981 c0 -13 49 -161 61 -183 10 -19 16 -14 77 52 77 84 81 90
55 90 -11 0 -57 11 -103 25 -96 29 -90 28 -90 16z"/>
<path d="M4432 6863 c-40 -5 -38 -17 11 -57 42 -34 54 -29 59 24 3 38 -3 41
-70 33z"/>
<path d="M4530 6704 c0 -12 42 -74 50 -74 23 0 26 65 4 74 -21 8 -54 8 -54 0z"/>
<path d="M3433 6678 c-46 -16 -63 -27 -63 -40 0 -32 63 -148 81 -148 20 0 114
174 105 196 -7 20 -50 17 -123 -8z"/>
<path d="M4600 6551 c0 -5 5 -13 10 -16 6 -3 10 -2 10 4 0 5 -4 13 -10 16 -5
3 -10 2 -10 -4z"/>
<path d="M2862 6482 c-18 -15 -32 -35 -32 -46 0 -17 5 -18 52 -12 l53 7 -25
-26 c-28 -30 -108 -85 -124 -85 -5 0 2 13 17 28 29 31 34 51 15 70 -19 19 -35
14 -75 -22 -21 -18 -64 -50 -96 -70 -65 -42 -77 -60 -54 -83 14 -14 20 -13 63
16 53 35 64 38 64 17 0 -32 -181 -151 -218 -144 -13 3 -7 10 20 28 53 35 64
80 20 80 -21 0 -191 -82 -192 -92 -1 -17 38 -6 108 33 40 22 77 38 80 34 3 -3
-14 -23 -38 -44 -40 -34 -43 -40 -30 -56 19 -23 57 -14 129 29 87 54 141 104
141 132 0 37 -28 41 -82 11 -68 -38 -60 -17 10 26 31 19 68 47 81 61 23 25 61
36 61 18 0 -5 -11 -19 -25 -32 -26 -25 -33 -59 -12 -61 28 -3 45 5 110 53 58
43 68 55 65 77 -3 28 -41 42 -61 22 -6 -6 -18 -11 -26 -11 -10 0 -4 10 17 26
30 24 42 44 25 44 -5 0 -23 -13 -41 -28z"/>
<path d="M2970 6465 c7 -8 20 -15 29 -15 13 1 13 3 -3 15 -26 19 -42 19 -26 0z"/>
<path d="M3250 6433 c0 -31 36 -163 44 -163 19 0 136 129 136 149 0 20 -6 21
-90 21 -49 0 -90 -3 -90 -7z"/>
<path d="M3070 6223 c0 -49 14 -113 24 -113 6 1 40 23 74 51 44 35 61 54 54
61 -6 6 -42 13 -81 16 -66 4 -71 3 -71 -15z"/>
<path d="M2370 6104 c0 -8 5 -12 10 -9 19 12 32 -6 14 -19 -11 -9 -13 -15 -6
-20 6 -4 21 3 32 14 17 17 19 24 9 36 -16 19 -59 18 -59 -2z"/>
<path d="M3741 6008 c-8 -9 -54 -13 -149 -14 -150 -2 -166 -5 -387 -87 -112
-41 -361 -151 -570 -252 -49 -24 -109 -59 -131 -79 -61 -53 -73 -91 -76 -254
-3 -127 -1 -142 17 -162 15 -16 27 -20 48 -16 37 7 87 43 87 62 0 19 7 18 37
-6 51 -40 134 -14 133 43 -1 19 -3 18 -14 -9 -22 -51 -67 -58 -114 -19 -30 25
-52 86 -52 142 0 86 68 183 128 183 50 0 62 -32 37 -94 -6 -12 -5 -17 2 -13 6
4 8 -11 5 -42 -5 -56 9 -88 44 -101 40 -15 61 2 69 57 23 161 83 257 219 347
140 93 292 139 456 140 113 1 116 0 160 -30 88 -60 136 -77 198 -71 101 11
173 85 126 131 -11 11 -25 15 -40 12 l-24 -6 22 44 c11 24 18 51 15 60 -9 23
-36 31 -58 18 -15 -10 -23 -8 -39 8 -19 19 -23 19 -49 5 -26 -13 -30 -13 -41
0 -15 18 -42 19 -59 3z"/>
<path d="M2631 5900 c-6 -28 -11 -62 -11 -75 0 -24 1 -23 82 20 46 24 84 48
86 53 3 9 -108 52 -134 52 -7 0 -17 -23 -23 -50z"/>
<path d="M2381 5765 c-25 -65 -26 -85 -7 -85 24 0 157 63 153 73 -3 11 -97 66
-114 67 -6 0 -21 -25 -32 -55z"/>
<path d="M3369 5785 c-92 -48 -234 -232 -216 -279 11 -29 36 -16 70 37 42 63
112 132 150 146 16 6 56 11 90 11 56 0 63 3 73 24 8 18 8 28 1 35 -6 6 -7 11
-2 11 4 0 0 9 -10 20 -25 28 -97 26 -156 -5z"/>
<path d="M3651 5723 c-5 -27 -6 -52 -1 -57 5 -5 32 -16 60 -26 43 -15 53 -15
65 -4 25 25 -8 94 -56 120 -46 23 -56 18 -68 -33z"/>
<path d="M2165 5670 c-23 -45 -20 -80 8 -80 33 1 107 37 107 54 0 15 -62 56
-85 56 -8 0 -21 -13 -30 -30z"/>
<path d="M3403 5663 c9 -2 25 -2 35 0 9 3 1 5 -18 5 -19 0 -27 -2 -17 -5z"/>
<path d="M3480 5647 c0 -2 15 -16 33 -33 l32 -29 -29 33 c-28 30 -36 37 -36
29z"/>
<path d="M1965 5600 c-21 -42 -20 -80 4 -80 23 0 88 26 95 39 6 9 -58 71 -74
71 -5 0 -16 -13 -25 -30z"/>
<path d="M3651 5580 c-1 -26 21 -66 49 -87 8 -7 40 -22 70 -34 80 -32 116 -62
135 -113 29 -76 -2 -153 -76 -191 -66 -34 -165 -4 -140 42 6 12 8 30 4 40 -6
14 -9 10 -13 -17 -4 -31 -10 -36 -43 -44 -31 -8 -42 -6 -65 11 -39 29 -43 83
-6 112 30 24 20 29 -13 6 -12 -8 -24 -28 -28 -44 l-6 -29 -47 20 c-70 31 -138
28 -216 -11 -76 -37 -106 -74 -172 -206 -42 -85 -81 -225 -69 -246 14 -22 36
-5 64 50 48 98 129 209 164 227 58 31 154 30 278 -2 89 -22 114 -26 129 -16
12 7 21 8 25 2 3 -6 21 -10 40 -10 19 0 37 -5 41 -12 4 -6 7 -53 6 -104 -1
-66 2 -95 12 -103 21 -17 33 5 45 81 12 70 3 148 -23 199 -13 26 -12 28 12 34
64 16 122 90 122 156 0 47 -36 115 -73 138 -18 11 -52 27 -77 37 -69 26 -107
58 -118 101 -8 30 -10 33 -11 13z m24 -420 c3 -5 1 -19 -5 -30 -11 -21 -11
-21 -30 2 -17 21 -17 24 -2 30 24 10 30 9 37 -2z"/>
<path d="M3546 5567 c3 -10 9 -15 12 -12 3 3 0 11 -7 18 -10 9 -11 8 -5 -6z"/>
<path d="M3450 5540 c-11 -11 -20 -33 -20 -50 0 -32 30 -70 55 -70 19 0 52 36
60 67 14 59 -52 96 -95 53z m55 0 c3 -5 -1 -10 -10 -10 -9 0 -13 5 -10 10 3 6
8 10 10 10 2 0 7 -4 10 -10z"/>
<path d="M1761 5503 c-6 -20 -8 -39 -6 -42 6 -5 74 15 95 28 21 14 -15 51 -51
51 -24 0 -30 -6 -38 -37z"/>
<path d="M3302 5500 c0 -14 2 -19 5 -12 2 6 2 18 0 25 -3 6 -5 1 -5 -13z"/>
<path d="M2664 5475 c-52 -36 -59 -155 -11 -202 25 -26 57 -26 57 -1 0 9 -3 8
-10 -2 -7 -12 -14 -12 -27 -4 -27 17 -43 54 -42 104 0 52 16 87 50 106 13 7
19 13 14 14 -6 0 -20 -7 -31 -15z"/>
<path d="M1610 5426 c0 -34 15 -40 46 -20 25 17 25 18 8 31 -29 21 -54 16 -54
-11z"/>
<path d="M2691 5330 c0 -8 4 -22 9 -30 12 -18 12 -2 0 25 -6 13 -9 15 -9 5z"/>
<path d="M1510 5310 c0 -23 10 -26 28 -8 18 18 15 28 -8 28 -13 0 -20 -7 -20
-20z"/>
<path d="M1460 5220 c-12 -7 -12 -12 -3 -21 10 -10 14 -9 19 5 8 22 2 27 -16
16z"/>
<path d="M2410 5090 c-10 -6 -2 -7 25 -3 49 7 58 13 19 13 -16 0 -36 -5 -44
-10z"/>
<path d="M2192 4923 c-22 -11 -23 -12 -5 -9 13 2 26 0 29 -6 3 -5 12 -7 19 -4
7 2 16 -2 19 -9 3 -8 12 -12 21 -9 8 4 15 1 15 -6 0 -7 8 -10 20 -7 13 3 20 0
20 -10 0 -9 6 -12 19 -8 12 3 21 0 24 -10 4 -8 13 -12 22 -9 8 4 17 -1 21 -10
3 -9 15 -16 25 -16 10 0 19 -4 19 -10 0 -5 11 -10 25 -10 15 0 25 -6 25 -15 0
-9 6 -12 15 -8 9 3 22 -2 29 -12 7 -10 18 -15 24 -11 6 3 17 -3 26 -15 10 -15
21 -20 36 -16 14 3 24 -1 31 -15 8 -14 17 -18 34 -14 18 5 27 1 34 -13 7 -13
18 -17 31 -14 12 3 29 -2 40 -12 11 -10 26 -14 38 -11 12 4 24 0 32 -9 8 -10
22 -14 36 -11 13 4 27 0 34 -10 9 -10 22 -13 40 -9 18 4 31 1 40 -9 8 -10 21
-14 36 -10 13 4 31 1 39 -6 8 -6 23 -9 35 -5 12 4 28 1 36 -6 11 -9 21 -9 39
-1 13 6 27 7 30 2 4 -6 140 -6 140 0 0 1 17 3 37 4 20 1 40 5 44 9 4 4 15 7
25 7 9 0 19 6 22 14 4 11 -3 11 -41 -2 -66 -22 -280 -21 -392 2 -114 24 -308
89 -400 135 -41 21 -145 74 -231 118 -162 84 -210 98 -257 76z"/>
<path d="M2100 4889 c-25 -11 -103 -44 -175 -73 -162 -66 -265 -114 -287 -134
-22 -19 -24 -39 -3 -22 13 11 20 9 41 -11 45 -42 197 -250 258 -354 32 -55 66
-111 75 -125 l16 -26 862 71 c475 39 866 74 870 78 4 4 -37 49 -90 100 -68 65
-103 107 -120 145 -18 38 -26 48 -31 36 -3 -9 -13 -14 -21 -10 -8 3 -17 1 -21
-5 -3 -6 -12 -8 -20 -5 -7 3 -16 1 -20 -5 -3 -5 -14 -7 -24 -4 -10 3 -21 1
-25 -5 -5 -8 -10 -8 -20 0 -10 8 -15 8 -20 0 -5 -8 -11 -8 -20 0 -10 8 -19 8
-35 0 -16 -9 -25 -8 -36 1 -11 9 -21 9 -37 2 -17 -8 -28 -7 -41 3 -14 10 -24
10 -38 3 -15 -8 -24 -7 -37 5 -10 9 -26 13 -39 9 -12 -3 -29 0 -37 7 -7 6 -25
10 -38 8 -13 -1 -32 3 -41 11 -9 7 -25 11 -36 8 -10 -3 -24 1 -31 9 -6 8 -24
14 -39 14 -15 0 -33 7 -40 15 -7 9 -21 13 -35 9 -15 -4 -24 0 -28 10 -4 10
-18 16 -36 16 -16 0 -31 6 -35 15 -3 8 -16 15 -29 15 -14 0 -30 7 -37 15 -7 8
-20 15 -30 15 -10 0 -21 7 -24 16 -4 9 -13 14 -21 10 -9 -3 -18 1 -21 9 -4 8
-14 15 -24 15 -11 0 -22 5 -25 10 -3 6 -14 10 -25 10 -10 0 -20 7 -24 15 -3 8
-12 12 -21 9 -8 -4 -17 1 -21 10 -3 9 -10 13 -15 10 -6 -3 -16 0 -24 6 -8 6
-18 9 -24 6 -5 -3 -11 1 -15 9 -3 8 -12 12 -21 9 -8 -4 -15 -1 -15 6 0 7 -8
10 -20 7 -10 -3 -20 -2 -22 2 -8 19 -66 19 -108 0z"/>
<path d="M3625 4860 c-15 -16 -16 -25 -7 -43 6 -12 12 -29 15 -37 5 -20 47 48
47 78 0 28 -30 30 -55 2z"/>
<path d="M1297 4043 c-17 -45 -16 -67 2 -47 8 8 25 94 18 94 -1 0 -10 -21 -20
-47z"/>
<path d="M3957 3720 c-4 -15 0 -20 14 -20 10 0 19 -6 19 -14 0 -8 7 -17 16
-20 10 -4 14 -14 11 -26 -4 -15 0 -20 14 -20 21 0 26 -16 7 -23 -9 -3 -7 -7 5
-12 10 -4 20 -5 23 -2 8 8 -17 80 -31 92 -7 6 -15 22 -19 38 -8 34 -51 39 -59
7z"/>
<path d="M3864 3719 c-26 -9 -41 -29 -22 -29 17 0 60 -51 54 -66 -3 -7 5 -15
17 -18 18 -5 19 -8 7 -15 -12 -9 -12 -11 3 -17 10 -3 20 -4 23 -1 8 8 -16 80
-30 89 -6 4 -15 20 -21 36 -8 25 -13 28 -31 21z"/>
<path d="M3730 3691 c0 -3 11 -19 25 -35 28 -33 31 -42 13 -49 -7 -3 -3 -6 9
-6 21 -1 44 -21 24 -21 -6 0 -11 -4 -11 -10 0 -5 9 -10 21 -10 16 0 20 4 14
18 -3 9 -9 29 -12 45 -3 15 -11 27 -19 27 -7 0 -14 10 -16 23 -2 15 -10 22
-25 23 -13 1 -23 -1 -23 -5z"/>
<path d="M3576 3665 c4 -10 10 -12 18 -6 7 6 18 3 31 -7 27 -22 37 -49 22 -56
-7 -2 -2 -5 11 -5 19 -1 22 -5 17 -21 -5 -16 -2 -20 15 -20 18 0 20 4 14 23
-15 50 -24 67 -34 67 -5 0 -10 7 -10 15 0 8 5 15 12 15 6 0 9 3 6 6 -4 3 -16
1 -27 -6 -14 -7 -21 -7 -21 0 0 5 -13 10 -30 10 -22 0 -28 -4 -24 -15z"/>
<path d="M3454 3654 c3 -9 6 -18 6 -20 0 -3 5 -2 11 1 18 12 56 -4 62 -24 3
-11 0 -22 -7 -25 -6 -2 -1 -5 12 -5 19 -1 22 -5 17 -21 -5 -15 -2 -20 13 -20
18 0 19 3 8 40 -10 35 -55 85 -56 63 0 -4 -5 0 -11 10 -13 22 -64 24 -55 1z"/>
<path d="M3334 3645 c3 -8 0 -15 -6 -15 -9 0 -9 -3 -1 -11 7 -7 20 -8 34 -3
13 4 28 7 32 6 4 -1 3 7 -3 18 -13 24 -66 29 -56 5z"/>
<path d="M3214 3635 c3 -8 0 -15 -6 -15 -6 0 -8 -3 -5 -6 6 -6 25 -10 71 -13
13 -1 17 -7 13 -21 -4 -15 0 -20 15 -20 15 0 18 -5 13 -20 -5 -14 -2 -20 9
-20 9 0 16 6 16 14 0 26 -22 76 -34 75 -25 -3 -34 2 -39 21 -3 14 -14 20 -32
20 -20 0 -26 -4 -21 -15z"/>
<path d="M3087 3621 c-4 -16 2 -20 33 -23 36 -3 37 -2 27 19 -13 29 -53 31
-60 4z"/>
<path d="M2964 3610 c0 -19 13 -25 44 -21 19 3 44 -20 38 -35 -2 -6 5 -15 17
-18 18 -5 19 -8 7 -15 -12 -9 -12 -11 3 -17 26 -10 30 0 16 45 -10 33 -16 40
-31 36 -13 -5 -21 1 -30 19 -14 33 -64 37 -64 6z"/>
<path d="M3408 3599 c-4 -23 -1 -29 14 -29 15 0 18 -5 13 -20 -5 -15 -2 -20
14 -20 19 0 19 2 5 44 -19 55 -40 66 -46 25z"/>
<path d="M2844 3600 c0 -16 9 -22 38 -27 43 -6 58 -21 37 -34 -11 -6 -8 -9 8
-9 12 0 25 -4 28 -10 3 -5 1 -10 -4 -10 -6 0 -11 -4 -11 -10 0 -5 9 -10 21
-10 17 0 19 4 13 23 -17 55 -25 67 -43 67 -11 0 -23 9 -26 20 -9 28 -61 28
-61 0z"/>
<path d="M2724 3590 c0 -16 7 -20 33 -20 31 0 33 2 23 20 -6 11 -21 20 -33 20
-16 0 -23 -6 -23 -20z"/>
<path d="M2254 3580 c0 -11 5 -20 11 -20 18 0 57 -50 51 -65 -4 -10 1 -15 14
-15 22 0 27 -16 8 -23 -9 -3 -7 -7 5 -12 10 -4 20 -5 23 -2 8 8 -18 87 -28 87
-5 0 -14 14 -19 30 -6 17 -17 30 -24 30 -7 0 -20 2 -27 5 -9 4 -14 -2 -14 -15z"/>
<path d="M2600 3590 c0 -11 7 -15 51 -24 28 -6 46 -41 25 -50 -6 -2 -1 -5 12
-5 19 -1 22 -5 17 -21 -5 -15 -2 -20 13 -20 19 0 19 3 8 42 -9 28 -21 45 -37
52 -13 6 -28 16 -32 23 -10 15 -57 17 -57 3z"/>
<path d="M3168 3575 c-4 -19 -1 -25 13 -25 21 0 26 -16 7 -23 -9 -3 -7 -7 5
-12 26 -11 30 -2 16 44 -14 46 -34 54 -41 16z"/>
<path d="M2370 3578 c0 -4 9 -8 20 -8 11 0 20 -6 20 -14 0 -8 7 -17 16 -20 10
-4 14 -14 11 -26 -4 -15 0 -20 15 -20 15 0 18 -5 13 -20 -5 -14 -2 -20 9 -20
19 0 19 3 5 53 -5 20 -14 37 -19 37 -5 0 -11 9 -15 19 -4 12 -17 20 -40 23
-19 2 -35 0 -35 -4z"/>
<path d="M2465 3579 c-15 -7 -12 -8 13 -3 27 5 38 1 59 -20 15 -15 23 -32 19
-41 -4 -10 1 -15 15 -15 16 0 19 -4 14 -20 -5 -16 -2 -20 14 -20 19 0 19 2 6
40 -26 73 -83 106 -140 79z"/>
<path d="M2803 3550 c3 -10 0 -21 -7 -24 -6 -2 -1 -5 12 -5 19 -1 22 -5 17
-21 -5 -16 -2 -20 15 -20 22 0 22 5 -1 68 -11 28 -44 31 -36 2z"/>
<path d="M4070 3560 c-12 -8 -11 -10 8 -10 12 0 22 5 22 10 0 13 -11 13 -30 0z"/>
<path d="M3950 3550 c-12 -8 -11 -10 8 -10 12 0 22 5 22 10 0 13 -11 13 -30 0z"/>
<path d="M3830 3540 c-12 -8 -10 -10 8 -10 13 0 20 4 17 10 -7 12 -6 12 -25 0z"/>
<path d="M3710 3530 c-12 -8 -10 -10 8 -10 13 0 20 4 17 10 -7 12 -6 12 -25 0z"/>
<path d="M3585 3520 c-3 -5 1 -10 9 -10 9 0 16 5 16 10 0 6 -4 10 -9 10 -6 0
-13 -4 -16 -10z"/>
<path d="M3465 3510 c-3 -5 1 -10 9 -10 9 0 16 5 16 10 0 6 -4 10 -9 10 -6 0
-13 -4 -16 -10z"/>
<path d="M3345 3500 c-3 -5 1 -10 9 -10 9 0 16 5 16 10 0 6 -4 10 -9 10 -6 0
-13 -4 -16 -10z"/>
<path d="M3220 3490 c-12 -8 -11 -10 8 -10 12 0 22 5 22 10 0 13 -11 13 -30 0z"/>
<path d="M3100 3480 c-12 -8 -11 -10 8 -10 12 0 22 5 22 10 0 13 -11 13 -30 0z"/>
<path d="M2980 3470 c-12 -8 -10 -10 8 -10 13 0 20 4 17 10 -7 12 -6 12 -25 0z"/>
<path d="M4130 3470 c0 -5 5 -10 11 -10 5 0 7 5 4 10 -3 6 -8 10 -11 10 -2 0
-4 -4 -4 -10z"/>
<path d="M1124 3461 c4 -5 28 -28 55 -51 46 -38 50 -39 48 -18 0 13 -6 26 -12
30 -6 5 -4 8 5 8 8 1 -1 9 -20 20 -36 20 -85 27 -76 11z"/>
<path d="M2855 3460 c-3 -5 3 -10 15 -10 12 0 18 5 15 10 -3 6 -10 10 -15 10
-5 0 -12 -4 -15 -10z"/>
<path d="M4005 3460 c3 -5 8 -10 11 -10 2 0 4 5 4 10 0 6 -5 10 -11 10 -5 0
-7 -4 -4 -10z"/>
<path d="M2735 3450 c-3 -5 1 -10 9 -10 9 0 16 5 16 10 0 6 -4 10 -9 10 -6 0
-13 -4 -16 -10z"/>
<path d="M3885 3450 c3 -5 8 -10 11 -10 2 0 4 5 4 10 0 6 -5 10 -11 10 -5 0
-7 -4 -4 -10z"/>
<path d="M2615 3440 c-3 -5 1 -10 9 -10 9 0 16 5 16 10 0 6 -4 10 -9 10 -6 0
-13 -4 -16 -10z"/>
<path d="M3760 3440 c0 -5 5 -10 10 -10 6 0 10 5 10 10 0 6 -4 10 -10 10 -5 0
-10 -4 -10 -10z"/>
<path d="M2495 3430 c-3 -5 1 -10 9 -10 9 0 16 5 16 10 0 6 -4 10 -9 10 -6 0
-13 -4 -16 -10z"/>
<path d="M3640 3430 c0 -5 5 -10 10 -10 6 0 10 5 10 10 0 6 -4 10 -10 10 -5 0
-10 -4 -10 -10z"/>
<path d="M2370 3420 c-12 -8 -11 -10 8 -10 12 0 22 5 22 10 0 13 -11 13 -30 0z"/>
<path d="M3520 3420 c0 -5 5 -10 10 -10 6 0 10 5 10 10 0 6 -4 10 -10 10 -5 0
-10 -4 -10 -10z"/>
<path d="M3400 3410 c0 -5 5 -10 11 -10 5 0 7 5 4 10 -3 6 -8 10 -11 10 -2 0
-4 -4 -4 -10z"/>
<path d="M3275 3400 c3 -5 11 -10 16 -10 6 0 7 5 4 10 -3 6 -11 10 -16 10 -6
0 -7 -4 -4 -10z"/>
<path d="M3155 3390 c3 -5 8 -10 11 -10 2 0 4 5 4 10 0 6 -5 10 -11 10 -5 0
-7 -4 -4 -10z"/>
<path d="M3030 3380 c0 -5 5 -10 10 -10 6 0 10 5 10 10 0 6 -4 10 -10 10 -5 0
-10 -4 -10 -10z"/>
<path d="M1100 3365 c0 -19 60 -74 80 -74 9 0 5 6 -10 14 -15 9 -19 15 -10 15
8 0 -1 9 -20 20 -27 15 -30 19 -15 20 17 0 17 2 5 10 -21 14 -30 12 -30 -5z"/>
<path d="M2910 3370 c0 -5 5 -10 10 -10 6 0 10 5 10 10 0 6 -4 10 -10 10 -5 0
-10 -4 -10 -10z"/>
<path d="M2790 3360 c0 -5 5 -10 10 -10 6 0 10 5 10 10 0 6 -4 10 -10 10 -5 0
-10 -4 -10 -10z"/>
<path d="M2670 3350 c0 -5 5 -10 10 -10 6 0 10 5 10 10 0 6 -4 10 -10 10 -5 0
-10 -4 -10 -10z"/>
<path d="M2550 3340 c0 -5 5 -10 11 -10 5 0 7 5 4 10 -3 6 -8 10 -11 10 -2 0
-4 -4 -4 -10z"/>
<path d="M2425 3330 c3 -5 11 -10 16 -10 6 0 7 5 4 10 -3 6 -11 10 -16 10 -6
0 -7 -4 -4 -10z"/>
<path d="M4097 3247 c-12 -13 -52 -44 -90 -71 -37 -26 -79 -58 -94 -72 -14
-13 -30 -24 -35 -24 -5 0 7 16 28 35 20 19 31 35 23 35 -8 0 -1 9 14 19 20 13
25 20 15 24 -8 3 1 10 20 17 22 8 30 15 22 20 -9 6 -7 11 6 19 11 6 13 11 6
11 -7 0 -23 -10 -35 -23 -12 -13 -51 -43 -87 -67 -36 -24 -78 -56 -93 -72 -16
-15 -33 -28 -38 -28 -6 0 6 16 27 35 20 19 31 35 24 35 -7 0 -2 9 11 20 17 14
20 20 9 20 -8 1 3 10 25 20 26 12 33 19 21 19 -20 1 -20 1 0 17 18 14 18 15
-3 4 -13 -6 -23 -14 -23 -19 0 -4 -32 -29 -70 -55 -53 -35 -75 -44 -87 -38
-14 8 -13 11 7 22 21 11 21 13 6 22 -12 7 -29 1 -66 -27 -37 -28 -54 -34 -66
-27 -15 9 -15 11 6 22 20 11 21 14 7 22 -13 7 -32 -1 -77 -32 -33 -22 -60 -44
-60 -48 0 -4 -15 -16 -32 -26 -24 -12 -27 -13 -14 -2 11 9 16 16 10 16 -5 0 5
9 21 20 17 11 24 20 15 20 -10 0 -7 6 9 19 18 14 20 20 10 24 -14 5 -11 7 38
23 14 4 15 7 4 13 -11 7 -10 11 5 20 11 6 15 10 9 10 -5 0 -19 -6 -29 -14 -11
-8 -16 -15 -10 -15 5 0 -31 -27 -81 -60 -49 -33 -85 -60 -80 -60 11 0 -46 -40
-57 -40 -10 0 21 31 52 53 22 15 23 17 5 17 -17 0 -15 3 8 19 20 13 25 20 15
24 -8 3 1 10 20 17 22 8 30 15 22 20 -9 6 -7 11 6 19 11 6 14 11 8 11 -6 0
-22 -11 -35 -24 -13 -13 -57 -47 -98 -75 -41 -28 -70 -51 -65 -51 5 0 -4 -9
-21 -20 -46 -31 -50 -24 -9 15 20 19 31 35 23 35 -8 0 -1 9 14 19 20 13 25 20
15 24 -8 3 1 10 20 17 22 8 30 15 22 20 -9 6 -7 11 6 19 11 6 13 11 6 11 -7 0
-23 -10 -35 -23 -12 -13 -49 -42 -82 -64 -33 -23 -75 -55 -94 -72 -48 -43 -61
-39 -15 4 20 19 31 35 23 35 -8 0 0 9 16 20 25 17 27 20 10 21 -14 0 -7 6 20
19 22 10 34 19 26 19 -11 1 -11 4 0 18 13 15 12 15 -8 4 -13 -6 -23 -16 -23
-20 0 -5 -30 -28 -67 -52 -36 -24 -82 -58 -101 -76 -19 -18 -40 -33 -46 -33
-6 0 7 16 28 35 22 19 33 35 25 35 -9 0 -5 8 11 20 17 14 20 20 10 21 -8 0 1
8 20 16 20 9 29 18 22 20 -10 4 -8 9 5 19 10 7 15 14 11 14 -4 0 -20 -12 -35
-26 -15 -15 -54 -44 -86 -66 -43 -29 -61 -37 -74 -30 -14 8 -13 11 7 22 21 11
21 13 6 22 -13 7 -29 1 -67 -27 -36 -26 -54 -33 -66 -26 -14 7 -13 10 7 21 18
9 20 14 9 21 -11 6 -10 9 4 13 9 4 25 8 34 12 14 4 14 7 4 13 -10 6 -9 10 5
15 9 3 14 9 11 12 -3 3 -16 -1 -29 -10 -12 -9 -18 -16 -13 -16 6 0 -29 -26
-78 -58 -48 -32 -85 -61 -82 -63 2 -3 -10 -13 -28 -23 -23 -13 -27 -13 -13 -2
11 9 16 16 10 16 -5 0 5 9 21 20 17 11 24 20 15 20 -11 1 -9 6 8 19 15 13 18
21 10 24 -13 5 -8 7 39 23 14 4 15 7 4 13 -11 7 -10 11 5 20 11 6 14 11 8 11
-7 0 -25 -13 -40 -29 -16 -15 -60 -49 -99 -75 -38 -25 -65 -46 -60 -46 6 0 -3
-9 -20 -20 -46 -31 -50 -24 -8 15 23 21 32 35 23 35 -9 0 -3 8 13 19 20 13 25
20 15 24 -8 3 1 10 20 17 22 8 30 15 22 20 -9 6 -7 11 6 19 11 6 13 11 6 11
-7 0 -23 -10 -35 -23 -12 -13 -47 -40 -77 -62 -30 -21 -57 -40 -59 -41 -2 -2
8 -67 22 -146 14 -79 33 -192 43 -253 9 -60 21 -116 27 -123 6 -8 21 -11 38
-7 15 3 30 1 34 -4 4 -8 12 -8 26 0 15 7 24 7 34 -1 8 -6 23 -9 34 -5 12 3 31
-1 45 -10 14 -9 31 -15 38 -12 8 3 5 6 -7 6 -13 1 -16 4 -8 12 8 8 16 7 31 -2
16 -10 23 -10 35 0 11 9 17 9 22 1 5 -7 20 -9 40 -6 19 4 36 2 40 -3 4 -7 13
-6 25 1 16 10 22 10 32 -1 11 -12 10 -13 -4 -8 -10 3 -20 2 -23 -3 -7 -12 70
-8 82 3 4 5 -1 5 -12 1 -17 -6 -18 -5 -7 7 10 10 17 11 31 2 10 -6 23 -8 30
-4 7 4 39 7 71 5 33 -1 62 2 66 7 3 5 13 5 25 -1 12 -7 25 -7 37 -1 10 5 24 6
32 1 8 -5 22 -4 32 1 13 7 30 6 54 -1 20 -7 38 -9 41 -6 4 3 -1 6 -11 6 -9 0
-14 5 -11 10 4 7 12 7 24 0 10 -5 21 -6 25 -2 7 6 55 12 106 13 14 1 30 5 37
11 8 6 18 6 31 -1 15 -8 23 -7 32 4 9 11 17 12 32 4 14 -8 23 -8 31 0 6 6 18
11 27 10 10 0 9 -3 -5 -9 -14 -6 -15 -9 -5 -9 9 -1 26 6 38 15 13 9 33 14 45
10 11 -3 27 0 34 6 7 6 22 8 33 5 10 -3 24 1 31 9 8 10 16 11 29 4 13 -7 21
-5 30 5 8 9 21 13 32 9 10 -3 25 0 33 6 8 7 24 10 35 7 10 -3 24 1 30 8 6 7
20 11 30 8 11 -3 27 0 35 7 8 6 23 9 33 6 11 -4 24 0 31 8 6 8 21 12 31 9 19
-5 20 1 20 163 -1 159 -18 365 -32 380 -4 3 -16 0 -27 -8 -12 -8 -19 -17 -16
-19 2 -3 -9 -13 -26 -23 -30 -18 -30 -18 -18 2 7 10 24 26 38 35 23 15 24 17
6 17 -17 0 -15 3 10 20 17 11 24 20 16 20 -11 0 -11 3 0 17 17 21 12 18 -83
-48 -40 -27 -67 -49 -62 -49 5 0 -4 -9 -21 -20 -46 -31 -50 -24 -9 15 20 19
31 35 23 35 -8 0 -1 9 14 19 20 13 25 20 15 24 -8 3 1 10 20 17 22 8 30 15 22
20 -9 6 -7 11 6 19 11 6 13 11 6 11 -7 0 -23 -10 -35 -23z m-403 -141 c-5 -14
-47 -46 -59 -46 -4 0 6 14 22 30 30 32 46 39 37 16z m-114 -1 c0 -8 -55 -55
-65 -55 -5 0 -1 7 9 15 11 8 16 15 11 15 -5 0 0 7 11 15 19 14 34 19 34 10z
m-736 -69 c-5 -14 -47 -46 -59 -46 -4 0 6 14 22 30 30 32 46 39 37 16z m-114
-1 c0 -8 -55 -55 -65 -55 -5 0 -1 7 9 15 11 8 16 15 11 15 -5 0 0 7 11 15 19
14 34 19 34 10z"/>
<path d="M3725 3209 c-29 -31 -29 -32 -5 -24 31 9 50 25 30 25 -9 0 -8 5 6 15
10 8 14 15 9 15 -6 0 -23 -14 -40 -31z"/>
<path d="M1097 3219 c7 -7 15 -10 18 -7 3 3 -2 9 -12 12 -14 6 -15 5 -6 -5z"/>
<path d="M3616 3215 c-11 -8 -16 -15 -11 -15 5 0 0 -7 -11 -16 -18 -14 -18
-15 6 -8 30 8 50 24 30 24 -9 0 -8 5 6 15 10 8 15 14 9 14 -5 0 -19 -6 -29
-14z"/>
<path d="M2886 3155 c-11 -8 -16 -15 -11 -15 5 0 0 -7 -11 -16 -18 -14 -18
-15 6 -8 30 8 50 24 30 24 -9 0 -8 5 6 15 10 8 15 14 9 14 -5 0 -19 -6 -29
-14z"/>
<path d="M1206 3134 c-13 -35 -6 -84 16 -102 11 -9 40 -33 62 -52 79 -67 73
-66 65 -7 -4 28 -8 61 -8 72 -1 12 -23 37 -56 63 -61 46 -70 49 -79 26z"/>
<path d="M2389 3099 c-30 -29 -30 -31 -8 -24 13 4 31 11 39 16 13 7 13 8 0 9
-12 0 -10 4 4 15 11 8 15 15 8 15 -6 0 -26 -14 -43 -31z"/>
<path d="M1035 3021 c-4 -8 95 -35 101 -28 2 2 -19 10 -46 19 -28 9 -52 13
-55 9z"/>
<path d="M1200 3010 c0 -5 5 -10 11 -10 5 0 7 5 4 10 -3 6 -8 10 -11 10 -2 0
-4 -4 -4 -10z"/>
<path d="M1030 2981 c0 -6 12 -14 28 -17 15 -4 29 -10 32 -15 3 -4 28 -14 55
-22 28 -9 43 -16 35 -16 -8 0 -44 8 -78 19 -78 24 -81 24 -81 3 0 -10 -4 -47
-10 -83 -26 -166 -51 -458 -45 -530 10 -108 25 -128 74 -98 16 10 24 10 40 0
12 -7 31 -10 46 -6 23 6 24 8 10 16 -12 7 -22 5 -33 -4 -14 -11 -15 -11 -11 2
3 8 17 15 31 15 15 1 32 6 39 13 7 7 22 12 34 12 13 0 26 5 29 10 3 6 17 10
30 10 12 0 25 7 29 15 3 8 14 15 25 15 12 0 26 12 35 31 14 28 13 36 -24 147
-38 117 -72 265 -85 374 l-6 58 -82 25 c-45 14 -90 28 -99 31 -10 3 -18 1 -18
-5z"/>
<path d="M1146 2982 c-3 -5 15 -13 39 -19 51 -12 61 0 14 16 -38 13 -46 14
-53 3z"/>
<path d="M1819 2653 c-11 -35 -19 -66 -18 -67 16 -14 178 -115 288 -178 150
-86 135 -86 200 -4 33 41 38 56 20 56 -13 0 -267 136 -381 205 l-87 53 -22
-65z"/>
<path d="M4088 2573 c7 -3 16 -2 19 1 4 3 -2 6 -13 5 -11 0 -14 -3 -6 -6z"/>
<path d="M3828 2523 c7 -3 16 -2 19 1 4 3 -2 6 -13 5 -11 0 -14 -3 -6 -6z"/>
<path d="M3495 2480 c-3 -5 -1 -10 4 -10 6 0 11 5 11 10 0 6 -2 10 -4 10 -3 0
-8 -4 -11 -10z"/>
<path d="M3568 2483 c7 -3 16 -2 19 1 4 3 -2 6 -13 5 -11 0 -14 -3 -6 -6z"/>
<path d="M2515 2470 c-3 -5 1 -10 10 -10 9 0 13 5 10 10 -3 6 -8 10 -10 10 -2
0 -7 -4 -10 -10z"/>
<path d="M3430 2470 c0 -5 5 -10 10 -10 6 0 10 5 10 10 0 6 -4 10 -10 10 -5 0
-10 -4 -10 -10z"/>
<path d="M2640 2460 c-12 -8 -10 -10 8 -10 13 0 20 4 17 10 -7 12 -6 12 -25 0z"/>
<path d="M3295 2460 c-3 -5 3 -10 15 -10 12 0 18 5 15 10 -3 6 -10 10 -15 10
-5 0 -12 -4 -15 -10z"/>
<path d="M2840 2450 c0 -5 7 -10 16 -10 8 0 12 5 9 10 -3 6 -10 10 -16 10 -5
0 -9 -4 -9 -10z"/>
<path d="M3035 2450 c-4 -6 3 -10 14 -10 25 0 27 6 6 13 -8 4 -17 2 -20 -3z"/>
<path d="M2357 2349 l-48 -60 113 -53 c210 -99 530 -213 647 -232 l39 -6 37
76 c21 42 36 79 33 82 -3 3 -57 17 -119 31 -113 25 -378 105 -411 123 -12 7
-18 7 -18 0 0 -5 -4 -10 -10 -10 -5 0 -10 6 -10 14 0 14 -87 52 -97 42 -4 -3
2 -13 13 -21 22 -17 12 -20 -17 -5 -10 6 -19 20 -19 31 0 11 -4 18 -8 15 -5
-3 -7 -18 -4 -34 2 -16 -1 -33 -8 -37 -7 -4 -11 -1 -9 6 6 48 -2 76 -26 87
-14 7 -27 12 -28 12 -1 0 -23 -28 -50 -61z"/>
<path d="M1357 2353 c-4 -3 -7 -11 -7 -17 0 -6 5 -5 12 2 6 6 9 14 7 17 -3 3
-9 2 -12 -2z"/>
<path d="M1295 2299 c-11 -17 -2 -18 19 -3 17 12 17 14 4 14 -9 0 -20 -5 -23
-11z"/>
<path d="M1235 2270 c-8 -13 15 -13 35 0 12 8 11 10 -7 10 -12 0 -25 -4 -28
-10z"/>
<path d="M1166 2244 c-5 -12 -2 -15 10 -10 8 3 18 6 20 6 2 0 4 5 4 10 0 16
-27 11 -34 -6z"/>
<path d="M3813 2211 c-64 -17 -112 -36 -127 -50 -23 -22 -31 -23 -185 -22 -89
0 -177 3 -196 7 -32 6 -35 4 -35 -17 0 -13 -14 -53 -30 -88 -22 -47 -27 -66
-19 -72 17 -10 141 -28 319 -45 222 -21 281 -24 326 -14 74 16 133 115 152
253 l8 65 -29 6 c-48 10 -76 6 -184 -23z"/>
<path d="M1035 2210 c-4 -6 5 -10 20 -10 15 0 24 4 20 10 -3 6 -12 10 -20 10
-8 0 -17 -4 -20 -10z"/>
<path d="M990 2189 c0 -5 5 -7 10 -4 6 3 10 8 10 11 0 2 -4 4 -10 4 -5 0 -10
-5 -10 -11z"/>
<path d="M2509 858 c-20 -16 -39 -91 -39 -156 0 -35 6 -57 21 -76 l20 -26 493
0 c576 0 531 -10 531 112 0 67 -1 71 -37 103 -51 48 -105 62 -171 46 -93 -22
-137 -24 -202 -6 -48 13 -88 15 -181 11 -152 -6 -137 -6 -289 0 -99 4 -134 2
-146 -8z"/>
</g>
</svg>
